<svg viewBox="0 0 248 240" version="1.1" xmlns="http://www.w3.org/2000/svg" style="fill-rule:evenodd;clip-rule:evenodd;stroke-linecap:round;stroke-linejoin:round;stroke-miterlimit:1.5;" width="100%" height="100%" fill="none" aria-hidden="true">
    <g transform="matrix(1,0,0,1,-26.498792,-30.378121)">
        <g id="Netzwerk" transform="matrix(-1.14574,0,-0,-1.14574,320.073989,322.794354)">
            <g transform="matrix(1,0,0,1,-8.771929,-20.569586)">
                <circle cx="61.318" cy="87.647" r="8.772" style="fill:none;stroke:currentColor;stroke-width:6.25px;"/>
            </g>
            <g transform="matrix(1,0,0,1,53.1189,-11.797658)">
                <circle cx="61.318" cy="87.647" r="8.772" style="fill:none;stroke:currentColor;stroke-width:6.25px;"/>
            </g>
            <g transform="matrix(1,0,0,1,-8.771929,115.446129)">
                <circle cx="61.318" cy="87.647" r="8.772" style="fill:none;stroke:currentColor;stroke-width:6.25px;"/>
            </g>
            <g transform="matrix(1,0,0,1,118.908366,-29.341515)">
                <circle cx="61.318" cy="87.647" r="8.772" style="fill:none;stroke:currentColor;stroke-width:6.25px;"/>
            </g>
            <g transform="matrix(1,0,0,1,17.543855,152.919591)">
                <circle cx="61.318" cy="87.647" r="8.772" style="fill:none;stroke:currentColor;stroke-width:6.25px;"/>
            </g>
            <g transform="matrix(1,0,0,1,69.957266,153.894257)">
                <circle cx="61.318" cy="87.647" r="8.772" style="fill:none;stroke:currentColor;stroke-width:6.25px;"/>
            </g>
            <path d="M56.972,74.651L76.526,104.38" style="fill:none;stroke:currentColor;stroke-width:6.25px;"/>
            <path d="M110.215,83.539L99.438,103.321" style="fill:none;stroke:currentColor;stroke-width:6.25px;"/>
            <path d="M192.495,84.313L184.689,65.858" style="fill:none;stroke:currentColor;stroke-width:6.25px;"/>
            <path d="M232.029,82.902L218.332,93.839" style="fill:none;stroke:currentColor;stroke-width:6.25px;"/>
            <path d="M180.418,141.776L187.32,118.165" style="fill:none;stroke:currentColor;stroke-width:6.25px;"/>
            <path d="M105.398,131.633L142.375,160.16" style="fill:none;stroke:currentColor;stroke-width:6.25px;"/>
            <path d="M121.955,187.219L142.884,184.603" style="fill:none;stroke:currentColor;stroke-width:6.25px;"/>
            <path d="M193.424,194.083L219.269,217.278" style="fill:none;stroke:currentColor;stroke-width:6.25px;"/>
            <path d="M125.248,235.17L109.127,210.854" style="fill:none;stroke:currentColor;stroke-width:6.25px;"/>
            <path d="M84.059,233.502L92.618,209.481" style="fill:none;stroke:currentColor;stroke-width:6.25px;"/>
            <path d="M60.571,199.549L82.28,192.46" style="fill:none;stroke:currentColor;stroke-width:6.25px;"/>
            <circle cx="232.992" cy="231.98" r="20.115" style="fill:none;stroke:currentColor;stroke-width:6.25px;"/>
            <g transform="matrix(1,0,0,1,-32.651025,-129.142246)">
                <circle cx="232.992" cy="231.98" r="20.115" style="fill:none;stroke:currentColor;stroke-width:6.25px;"/>
            </g>
            <g transform="matrix(1,0,0,1,-144.249405,-111.623859)">
                <circle cx="232.992" cy="231.98" r="20.115" style="fill:none;stroke:currentColor;stroke-width:6.25px;"/>
            </g>
            <g transform="matrix(1,0,0,1,-130.60417,-40.082836)">
                <circle cx="232.992" cy="231.98" r="20.115" style="fill:none;stroke:currentColor;stroke-width:6.25px;"/>
            </g>
            <g transform="matrix(1,0,0,1,72.002917,32.843824)">
                <circle cx="99.451" cy="138.939" r="31.311" style="fill:none;stroke:currentColor;stroke-width:6.25px;"/>
            </g>
            <g transform="matrix(1,0,0,1,175.925843,-11.797658)">
                <circle cx="61.318" cy="87.647" r="8.772" style="fill:none;stroke:currentColor;stroke-width:6.25px;"/>
            </g>
        </g>
    </g>
</svg>