<svg viewBox="0 0 278 195" version="1.1" xmlns="http://www.w3.org/2000/svg" style="fill-rule:evenodd;clip-rule:evenodd;stroke-linecap:round;stroke-linejoin:round;stroke-miterlimit:1.5;" width="100%" height="100%" fill="none" aria-hidden="true">
    <g transform="matrix(1,0,0,1,-11.198018,-52.702183)">
        <g id="PV-Haus" transform="matrix(1.203395,0,0,1.203395,-18.235112,-29.857643)">
            <g>
                <g id="Haus" transform="matrix(0.432261,0,0,0.432261,23.431649,106.606439)">
                    <g transform="matrix(1,0,0,1,-0.467303,-9.368814)">
                        <rect x="185.933" y="193.183" width="31.25" height="31.25" style="fill:none;stroke:currentColor;stroke-width:9.64px;"/>
                    </g>
                    <g transform="matrix(1,0,0,1,0,42.311363)">
                        <path d="M247.948,97.002L247.948,239.05L52.052,239.05L52.052,95.448M150,239.05L150,141.503L90.723,141.503L90.723,239.05M52.052,239.05L17.125,239.05M247.948,239.05L461.146,239.05" style="fill:none;stroke:currentColor;stroke-width:9.64px;"/>
                    </g>
                    <g transform="matrix(1,0,0,1,178.27066,53.878436)">
                        <path d="M247.948,125.433L247.948,227.482" style="fill:none;stroke:currentColor;stroke-width:9.64px;"/>
                    </g>
                    <g transform="matrix(1,0,0,1,178.27066,43.954877)">
                        <path d="M-28.271,8.02L-87.548,58.838L-87.548,27.296L-115.585,27.296L-115.585,83.954L-171.076,135.356L-28.271,8.02L114.534,135.356L292.805,135.356L150,8.02L-28.271,8.02ZM-28.271,8.02L114.534,135.356L292.805,135.356L150,8.02L-28.271,8.02Z" style="fill:none;stroke:currentColor;stroke-width:9.64px;"/>
                    </g>
                    <g transform="matrix(2.313415,0,0,2.313415,-43.236786,-246.62489)">
                        <path d="M110.355,129.073L172.353,184.116M197.609,184.116L135.612,129.073" style="fill:none;stroke:currentColor;stroke-width:4.17px;"/>
                    </g>
                    <g transform="matrix(2.313415,0,0,2.313415,-54.207119,-248.938305)">
                        <path d="M128.735,166.155L205.795,166.155" style="fill:none;stroke:currentColor;stroke-width:4.17px;"/>
                    </g>
                    <g transform="matrix(2.313415,0,0,2.313415,-54.207119,-246.62489)">
                        <path d="M107.323,146.061L184.382,146.061" style="fill:none;stroke:currentColor;stroke-width:4.17px;"/>
                    </g>
                </g>
            </g>
            <g id="Sonne" transform="matrix(-0.47634,0,0,-0.47634,261.064021,204.92636)">
                <g>
                    <g transform="matrix(0.939804,0,0,0.939804,9.029411,9.029411)">
                        <path d="M150,236.862L150,290.253" style="fill:none;stroke:currentColor;stroke-width:9.31px;"/>
                    </g>
                    <g transform="matrix(0,-0.939804,0.939804,0,7.169999,292.830001)">
                        <path d="M150,13.704L150,64.429" style="fill:none;stroke:currentColor;stroke-width:9.31px;"/>
                    </g>
                    <g transform="matrix(0.657625,-0.671388,0.671388,0.657625,-50.680177,152.622738)">
                        <path d="M150.163,11.35L150,63.246" style="fill:none;stroke:currentColor;stroke-width:9.31px;"/>
                    </g>
                    <g transform="matrix(0.657625,-0.671388,0.671388,0.657625,-50.680177,152.622738)">
                        <path d="M150,236.931L150,290.253" style="fill:none;stroke:currentColor;stroke-width:9.31px;"/>
                    </g>
                    <g transform="matrix(0.656676,0.672315,-0.672315,0.656676,153.676062,-48.788545)">
                        <path d="M150,237.929L150,290.253" style="fill:none;stroke:currentColor;stroke-width:9.31px;"/>
                    </g>
                    <g transform="matrix(-0.865137,0.367111,-0.367111,-0.865137,335.563407,228.274974)">
                        <path d="M149.99,1.766L150,66.472" style="fill:none;stroke:currentColor;stroke-width:9.31px;"/>
                    </g>
                    <g transform="matrix(-0.864614,-0.368339,0.368339,-0.864614,222.17171,338.421889)">
                        <path d="M149.99,1.766L150,66.472" style="fill:none;stroke:currentColor;stroke-width:9.31px;"/>
                    </g>
                    <g transform="matrix(-0.357909,-0.868983,0.868983,-0.357909,69.091934,335.387374)">
                        <path d="M149.99,1.766L150,66.472" style="fill:none;stroke:currentColor;stroke-width:9.31px;"/>
                    </g>
                    <g transform="matrix(0.354406,-0.870418,0.870418,0.354406,-37.88914,225.853471)">
                        <path d="M149.99,1.766L150,66.472" style="fill:none;stroke:currentColor;stroke-width:9.31px;"/>
                    </g>
                    <g transform="matrix(0.354406,-0.870418,0.870418,0.354406,-37.88914,225.853471)">
                        <path d="M149.971,240.95L149.755,306.381" style="fill:none;stroke:currentColor;stroke-width:9.31px;"/>
                    </g>
                </g>
            </g>
            <g transform="matrix(-0.453375,0,0,-0.453375,265.378536,206.599164)">
                <path d="M229.218,170.998C224.544,201.082 198.501,224.138 167.114,224.138C132.426,224.138 104.264,195.976 104.264,161.288C104.264,134.7 120.809,111.946 144.157,102.769" style="fill:none;stroke:currentColor;stroke-width:9.19px;"/>
            </g>
        </g>
    </g>
</svg>